# xmcd CD database file
#
# Track frame offsets:
#	150
#	18625
#	44162
#	60580
#	72367
#	86335
#	105642
#	117607
#	126535
#	135827
#	148165
#	169005
#	181855
#	195334
#	212134
#
# Disc length: 2971 seconds
#
# Revision: 0
# Processed by: cddbd v1.5.2PL0 Copyright (c) Steve Scherf et al.
# Submitted via: CDex 1.51
#
DISCID=df0b990f
DTITLE=Various Artist - Jazz-Collection Vol. 2  (Erste Bank)
DYEAR=1900
DGENRE=Jazz
TTITLE0=Laury Fygi - It's Crazy
TTITLE1=Billie Holiday - I Get A Kick Out Of You
TTITLE2=Stan Getz Feat. Antonio Carlos Jobim - So Danco Samba
TTITLE3=Nina Simone - I Put A Spell On You
TTITLE4=Ella Fitzgerald - Night And Day
TTITLE5=Laura Fygi and Michael Franks - Tell Me About You
TTITLE6=Joe Williams - 's Wonderful
TTITLE7=Diana Ross - Love Is Here To Stay
TTITLE8=Astrud Gilberto - Vivo Sonhando (Dreamer)
TTITLE9=Dinah Washington - Baby You've Got What It Takes
TTITLE10=Al Jareau/Oleta Adams - Waters Of March
TTITLE11=Stan Getz/Jao Gilberto - Doralice
TTITLE12=Sarah Vaughan -My Funny Valentine
TTITLE13=Mel Torme - Blue Moon
TTITLE14=Astrud Gilberto - Berimbau
EXTD=
EXTT0=
EXTT1=
EXTT2=
EXTT3=
EXTT4=
EXTT5=
EXTT6=
EXTT7=
EXTT8=
EXTT9=
EXTT10=
EXTT11=
EXTT12=
EXTT13=
EXTT14=
PLAYORDER=
